<?xml version="1.0" encoding="utf-8"?>
<!-- Generator: Adobe Illustrator 16.0.0, SVG Export Plug-In . SVG Version: 6.00 Build 0)  -->
<!DOCTYPE svg PUBLIC "-//W3C//DTD SVG 1.1//EN" "http://www.w3.org/Graphics/SVG/1.1/DTD/svg11.dtd">
<svg version="1.1" id="Layer_1" xmlns="http://www.w3.org/2000/svg" xmlns:xlink="http://www.w3.org/1999/xlink" x="0px" y="0px"
	 width="612px" height="792px" viewBox="0 0 612 792" enable-background="new 0 0 612 792" xml:space="preserve">
<g>
	<polygon fill="none" stroke="#43729D" stroke-width="6" stroke-miterlimit="8" points="608.4,367.9 474,3.4 400.4,3.4 391,170.3 
		255,0 83.9,0 41.1,8.6 24.8,24 3.4,50.5 0,82.1 2.6,109.5 14.5,136.9 27.4,160.9 51.3,181.4 72.7,201.1 97.5,213 86.4,364.5 
		172.8,362.8 178,225 258.4,225 309.7,364.5 386.8,364.5 338.8,225.9 451.8,367.1 462.1,366.2 468.9,365.3 474,217.3 531.4,367.9 
		608.4,367.9 608.4,367.9 	"/>
</g>
  <!--
  608.4,367.9 474,3.4 400.4,3.4 391,170.3 255,0 83.9,0 41.1,8.6 24.8,24 3.4,50.5 0,82.1 2.6,109.5 14.5,136.9 27.4,160.9 51.3,181.4 72.7,201.1 97.5,213 86.4,364.5 172.8,362.8 178,225 258.4,225 309.7,364.5 386.8,364.5 338.8,225.9 451.8,367.1 462.1,366.2 468.9,365.3 474,217.3 531.4,367.9 608.4,367.9 608.4,367.9
  -->
  <!--
  M 608.4,367.9 L 474,3.4 L 400.4,3.4 L 391,170.3 L 255,0 L 83.9,0 L 41.1,8.6 L 24.8,24 L 3.4,50.5 L 0,82.1 L 2.6,109.5 L 14.5,136.9 L 27.4,160.9 L 51.3,181.4 L 72.7,201.1 L 97.5,213 L 86.4,364.5 L 172.8,362.8 L 178,225 L 258.4,225 L 309.7,364.5 L 386.8,364.5 L 338.8,225.9 L 451.8,367.1 L 462.1,366.2 L 468.9,365.3 L 474,217.3 L 531.4,367.9 L 608.4,367.9 L 608.4,367.9
  -->


<g>
	<polygon fill="none" stroke="#43729D" stroke-width="6" stroke-miterlimit="8" points="235,149.5 209.4,77.4 107.9,77.4 88.9,85 
		85.1,96.4 87,108.7 92.7,121.1 103.2,134.3 117.4,143.8 126.9,147.6 235,149.5 235,149.5 	"/>
</g>
</svg>
