<svg version="1" xmlns="http://www.w3.org/2000/svg" x="0" y="0" width="300" height="300" viewBox="-10 -66 300 300" enable-background="new -10 -66 300 300" xml:space="preserve"><path d="
M 219 102 
c 0 10 -1 18 -1 26
c 0 11 -1 22 -1 33
c 0 3 -2 6 -4 7
c -3 2 -6 0 -9 -3
c -14 -19 -29 -38 -44 -57
c -1 -1 -1 -2 -3 -2
c 4 10 8 21 11 31
c 3 8 6 16 9 23
c 2 6 0 8 -6 8
c -8 0  -15 0 -23 0
c -4 0 -7 -2 -8 -6
c -6 -17 -13 -35 -19 -52
c -1 -2 -1 -3 -2 -5
c -12 0 -24 0 -36 0
c 0 2 -1 3 -1 5
c -1 17 -2 34 -2 50
c 0 6 -1 8 -8 8 
c -9 0 -18 0 -26 0
c -5 0 -7 -2 -6 -7
c 1 -20 2 -39 4 -59
c 0 -4 -1 -5 -4 -7
C 21 85 6 69 1 46
S 10 3 34 1
c 10 -1 21 -1 31 -1
c 15 0 31 0 47 0 
c 4 0 7 1 10 5
c 18 24 37 47 55 71 
c 1 1 1 1 3 3
c 0 -5 1 -8 1 -12
c 1 -20 2 -40 3 -59
c 0 -6 2 -7 7 -7
c 7 0 15 0 22 0 
c 4 0 6 1 8 5 
c 19 53 38 105 57 158 
c 1 4 -1 6 -4 6  
c -9 0 -18 0 -26 0  
c -2 0 -5 -3 -6 -5  
c -7 -19 -14 -38 -21 -57
C 221 106 220 105 219 102
z
M 95 38
c -15 0 -30 0 -45 0 
c -10 0 -14 6 -10 15
c 5 10 13 16 24 16 
c 13 0 26 0 39 0 
c 1 0 2 0 3 0
C103 58 99 48 95 38
z"/>
-->
</svg>

